<svg width="14.898438" height="17.000000" viewBox="0 0 14.8984 17" fill="none" xmlns="http://www.w3.org/2000/svg" xmlns:xlink="http://www.w3.org/1999/xlink">
	<desc>
			Created with Pixso.
	</desc>
	<defs>
		<clipPath id="clip128_234">
			<rect id="instagram-brands 1" rx="0.000000" width="13.899101" height="16.000000" transform="translate(0.500000 0.500000)" fill="white" fill-opacity="0"/>
		</clipPath>
	</defs>
	<rect id="instagram-brands 1" rx="0.000000" width="13.899101" height="16.000000" transform="translate(0.500000 0.500000)" fill="#FFFFFF" fill-opacity="0"/>
	<g clip-path="url(#clip128_234)">
		<path id="Vector" d="M7.45 4.68C5.33 4.68 3.63 6.38 3.63 8.49C3.63 10.6 5.33 12.31 7.45 12.31C9.56 12.31 11.27 10.6 11.27 8.49C11.27 6.38 9.56 4.68 7.45 4.68ZM7.45 10.97C6.08 10.97 4.96 9.86 4.96 8.49C4.96 7.12 6.08 6.01 7.45 6.01C8.82 6.01 9.93 7.12 9.93 8.49C9.93 9.86 8.82 10.97 7.45 10.97ZM12.32 4.52C12.32 5.01 11.92 5.41 11.43 5.41C10.93 5.41 10.53 5.01 10.53 4.52C10.53 4.03 10.93 3.63 11.43 3.63C11.92 3.63 12.32 4.03 12.32 4.52ZM14.85 5.42C14.79 4.23 14.52 3.18 13.64 2.31C12.77 1.44 11.72 1.16 10.52 1.1C9.29 1.03 5.6 1.03 4.37 1.1C3.18 1.16 2.12 1.43 1.25 2.3C0.37 3.17 0.1 4.23 0.05 5.42C-0.02 6.65 -0.02 10.33 0.05 11.56C0.1 12.75 0.37 13.81 1.25 14.68C2.12 15.55 3.18 15.82 4.37 15.88C5.6 15.95 9.29 15.95 10.52 15.88C11.72 15.82 12.77 15.55 13.64 14.68C14.52 13.81 14.79 12.75 14.85 11.56C14.92 10.33 14.92 6.65 14.85 5.42ZM13.26 12.88C13 13.53 12.5 14.03 11.84 14.29C10.86 14.68 8.53 14.59 7.45 14.59C6.36 14.59 4.03 14.68 3.06 14.29C2.4 14.03 1.9 13.53 1.64 12.88C1.25 11.9 1.34 9.57 1.34 8.49C1.34 7.41 1.25 5.08 1.64 4.11C1.9 3.45 2.4 2.95 3.06 2.69C4.04 2.3 6.36 2.39 7.45 2.39C8.53 2.39 10.86 2.31 11.84 2.69C12.49 2.95 13 3.45 13.26 4.11C13.65 5.08 13.56 7.41 13.56 8.49C13.56 9.57 13.65 11.9 13.26 12.88Z" fill="#000000" fill-opacity="1.000000" fill-rule="nonzero"/>
	</g>
</svg>
